{"title":"PBS Nova - Terror in Space (1998) VHSrip.avi","uid":6678652,"size":733349888,"categoryP":"video","categoryS":"tv_shows","magnet":"?xt=urn:btih:12a3d9a106ffd8906c9798f1851473b6709d2a08&amp;dn=PBS+Nova+-+Terror+in+Space+%281998%29+VHSrip.avi&amp;tr=udp%3A%2F%2Ftracker.openbittorrent.com%3A80&amp;tr=udp%3A%2F%2Fopen.demonii.com%3A1337&amp;tr=udp%3A%2F%2Ftracker.coppersurfer.tk%3A6969&amp;tr=udp%3A%2F%2Fexodus.desync.com%3A6969","seeders":1,"leechers":1,"uploader":"V100","files":-1,"time":1316117103,"description":"A documentary about the history, operation and problems aboard the Mir space station. Details about the fire, collision (Mir and resupply craft), power outages and computer failures. Interviews with Russian and American astronauts.\n\n\nVHSrip (public library tape), 56 minutes, English, 4:3, XVID, color, original air date- October 27, 1998\n\nPlease help keep me seeded.\n\n\nGeneral \nFormat : AVI \nFormat/Info : Audio Video Interleave \nFile size : 699 MiB \nDuration : 56mn 34s \nOverall bit rate : 1 728 Kbps \nWriting application : VirtualDubMod 1.5.4.1 (build 2178/release) \nWriting library : VirtualDubMod build 2178/release \n\nVideo \nFormat : MPEG-4 Visual \nFormat profile : Advanced Simple@L5 \nFormat settings, BVOP : 1 \nFormat settings, QPel : No \nFormat settings, GMC : No warppoints \nFormat settings, Matrix : Custom \nCodec ID : XVID \nCodec ID/Hint : XviD \nDuration : 56mn 34s \nBit rate : 1 601 Kbps \nWidth : 576 pixels \nHeight : 432 pixels \nDisplay aspect ratio : 4:3 \nFrame rate : 29.970 fps \nColor space : YUV \nChroma subsampling : 4:2:0 \nBit depth : 8 bits \nScan type : Progressive \nCompression mode : Lossy \nBits/(Pixel*Frame) : 0.215 \nStream size : 648 MiB (93%) \nWriting library : XviD 1.2.1 (UTC 2008-12-04) \n\nAudio  \nFormat : MPEG Audio \nFormat version : Version 1 \nFormat profile : Layer 3 \nMode : Joint stereo \nMode extension : MS Stereo \nCodec ID : 55 \nCodec ID/Hint : MP3 \nDuration : 56mn 34s \nBit rate mode : Variable \nBit rate : 114 Kbps \nNominal bit rate : 128 Kbps \nChannel(s) : 2 channels \nSampling rate : 48.0 KHz \nCompression mode : Lossy \nStream size : 46.0 MiB (7%) \nAlignment : Aligned on interleaves \nInterleave, duration : 24 ms (0.72 video frame) \nInterleave, preload duration : 425 ms \nWriting library : LAME3.98r \nEncoding settings : -m j -V 4 -q 2 -lowpass 17 --abr 128 \n","torrent":{"xt":"urn:btih:12a3d9a106ffd8906c9798f1851473b6709d2a08","amp;dn":"PBS+Nova+-+Terror+in+Space+%281998%29+VHSrip.avi","amp;tr":["udp%3A%2F%2Ftracker.openbittorrent.com%3A80","udp%3A%2F%2Fopen.demonii.com%3A1337","udp%3A%2F%2Ftracker.coppersurfer.tk%3A6969","udp%3A%2F%2Fexodus.desync.com%3A6969"],"infoHash":"12a3d9a106ffd8906c9798f1851473b6709d2a08","infoHashBuffer":{"type":"Buffer","data":[18,163,217,161,6,255,216,144,108,151,152,241,133,20,115,182,112,157,42,8]},"announce":[],"urlList":[]}}